# xmcd
# 
# Track frame offsets:
#     150
#     22080
#     41860
#     63790
#     83570
#     105500
#     125280
#     147210
#     166990
#     188920
#     208700
#     230630
#     250485
#     272415
# 
# Disc length: 3894
# 
# Revision: 1
# Processed by: cddbd v1.5.2PL0 Copyright (c) Steve Scherf et al.
# Submitted via: fre:ac v1.0.31
# 
DISCID=c00f340e
DTITLE=VITCH VITCH(BRW108) - Brave In Your Heart ～愛のチカラ～/ハダカDE☆OH!サマー
DYEAR=2011
DGENRE=JPop
TTITLE0=Brave In Your Heart ～愛のチカラ～
TTITLE1=ハダカDE☆OH!サマー
TTITLE2=Brave In Your Heart ～愛のチカラ～ 〔天海つばさ ver.〕 -Bonus Track-
TTITLE3=ハダカDE☆OH!サマー 〔天海つばさ ver.〕 -Bonus Track-
TTITLE4=Brave In Your Heart ～愛のチカラ～ 〔大橋未久 ver.〕 -Bonus Track-
TTITLE5=ハダカDE☆OH!サマー 〔大橋未久 ver.〕 -Bonus Track-
TTITLE6=Brave In Your Heart ～愛のチカラ～ 〔周防ゆきこ ver.〕 -Bonus Track-
TTITLE7=ハダカDE☆OH!サマー 〔周防ゆきこ ver.〕 -Bonus Track-
TTITLE8=Brave In Your Heart ～愛のチカラ～ 〔月野りさ ver.〕 -Bonus Track-
TTITLE9=ハダカDE☆OH!サマー 〔月野りさ ver.〕 -Bonus Track-
TTITLE10=Brave In Your Heart ～愛のチカラ～ 〔二宮沙樹 ver.〕 -Bonus Track-
TTITLE11=ハダカDE☆OH!サマー 〔二宮沙樹 ver.〕 -Bonus Track-
TTITLE12=Brave In Your Heart ～愛のチカラ～ 〔off vocal ver.〕 -Bonus Track-
TTITLE13=ハダカDE☆OH!サマー 〔off vocal ver.〕 -Bonus Track-
EXTD=
EXTT0=
EXTT1=
EXTT2=
EXTT3=
EXTT4=
EXTT5=
EXTT6=
EXTT7=
EXTT8=
EXTT9=
EXTT10=
EXTT11=
EXTT12=
EXTT13=
PLAYORDER=
